<?xml version="1.0" standalone="no"?>
<!DOCTYPE svg PUBLIC "-//W3C//DTD SVG 20010904//EN"
 "http://www.w3.org/TR/2001/REC-SVG-20010904/DTD/svg10.dtd">
<svg version="1.0" xmlns="http://www.w3.org/2000/svg"
 width="16.000000pt" height="16.000000pt" viewBox="0 0 16.000000 16.000000"
 preserveAspectRatio="xMidYMid meet">
<metadata>
Created by potrace 1.11, written by Peter Selinger 2001-2013
</metadata>
<g transform="translate(0.000000,16.000000) scale(0.000901,-0.000901)"
fill="#000000" stroke="none">
<path d="M16 12008 c4 -13 11 -36 15 -53 4 -16 15 -57 24 -90 9 -33 18 -64 19
-70 1 -5 10 -35 19 -65 16 -55 24 -85 77 -280 16 -58 38 -139 50 -180 12 -41
23 -82 25 -90 2 -8 14 -49 26 -90 11 -41 28 -100 36 -130 7 -30 18 -68 23 -85
9 -32 16 -56 49 -175 11 -41 57 -205 101 -365 45 -159 86 -308 92 -330 5 -22
11 -44 12 -50 2 -5 6 -17 9 -25 5 -12 114 -412 122 -445 1 -5 5 -17 8 -25 3
-8 18 -60 32 -115 14 -55 29 -107 32 -115 3 -8 7 -19 7 -25 1 -5 8 -30 15 -55
7 -25 15 -56 18 -69 2 -14 6 -28 8 -31 2 -4 18 -56 34 -116 16 -60 53 -192 81
-294 28 -102 73 -265 100 -362 27 -97 65 -223 84 -280 20 -57 39 -111 41 -122
2 -10 11 -29 20 -42 8 -13 15 -29 15 -36 0 -7 23 -59 50 -116 28 -57 50 -106
50 -110 0 -4 9 -18 20 -32 11 -14 20 -33 20 -42 0 -10 5 -18 10 -18 6 0 10 -4
10 -9 0 -22 239 -386 270 -411 3 -3 13 -14 21 -26 70 -103 398 -434 517 -521
20 -15 53 -40 72 -56 42 -33 45 -36 90 -67 19 -13 41 -30 48 -37 7 -7 19 -13
27 -13 7 0 15 -4 17 -9 5 -16 276 -174 398 -233 140 -67 198 -94 253 -114 23
-9 51 -20 62 -25 52 -23 274 -94 324 -104 13 -2 38 -9 55 -14 17 -6 67 -17
111 -26 127 -26 161 -32 230 -41 28 -3 64 -8 80 -10 54 -7 159 -15 229 -18 42
-2 71 -7 74 -14 3 -9 1624 -12 6758 -12 5755 0 6754 2 6754 14 0 8 -11 54 -25
102 -14 49 -29 105 -35 124 -5 19 -13 46 -17 60 -4 14 -8 30 -9 35 -1 6 -10
37 -20 70 -10 33 -17 64 -16 68 1 4 -5 21 -13 37 -9 17 -13 30 -11 30 3 0 0
15 -5 33 -6 17 -12 39 -14 47 -2 8 -13 49 -25 90 -12 41 -28 98 -35 125 -8 28
-23 82 -34 120 -11 39 -29 104 -40 145 -11 41 -36 134 -56 205 -20 72 -38 137
-40 145 -2 8 -4 15 -5 15 -1 0 -3 7 -5 15 -11 50 -29 118 -36 135 -4 11 -22
74 -39 140 -18 66 -35 131 -40 145 -10 31 -77 274 -86 315 -4 17 -11 36 -17
43 -5 6 -7 12 -4 12 3 0 1 15 -5 33 -13 44 -28 98 -33 122 -3 11 -16 61 -30
110 -15 50 -32 113 -40 140 -18 66 -81 292 -106 380 -11 39 -22 81 -25 94 -3
14 -7 28 -10 33 -3 4 -7 16 -9 25 -3 20 -18 74 -65 238 -17 61 -32 117 -34
125 -2 8 -10 35 -17 60 -7 25 -13 50 -14 55 -12 54 -95 328 -120 395 -19 50
-52 134 -64 165 -18 43 -163 332 -181 360 -11 17 -23 37 -26 45 -20 45 -237
354 -274 390 -8 8 -33 38 -55 65 -50 63 -292 306 -364 365 -30 25 -63 53 -73
63 -10 9 -22 17 -28 17 -5 0 -15 9 -22 20 -7 11 -17 20 -21 20 -5 0 -27 15
-50 34 -70 56 -265 185 -271 178 -3 -3 -6 0 -6 6 0 7 -6 12 -14 12 -8 0 -21 6
-28 13 -8 6 -23 17 -35 24 -38 21 -278 145 -280 145 -2 -1 -29 10 -60 24 -81
34 -93 39 -138 58 -40 15 -211 75 -230 80 -5 2 -30 8 -55 15 -25 7 -52 15 -60
17 -171 42 -226 54 -244 54 -13 0 -26 3 -29 6 -4 4 -23 8 -44 10 -20 2 -53 6
-73 10 -19 3 -51 8 -70 10 -19 2 -52 5 -73 8 -21 2 -41 6 -44 10 -3 3 -14 1
-24 -4 -11 -7 -20 -7 -24 0 -4 6 -2326 10 -6831 10 l-6825 0 7 -22z"/>
</g>
</svg>
